<?xml version="1.0" encoding="UTF-8"?>
<svg xmlns="http://www.w3.org/2000/svg" xmlns:xlink="http://www.w3.org/1999/xlink" width="48pt" height="48pt" viewBox="0 0 48 48" version="1.1">
<defs>
<filter id="alpha" filterUnits="objectBoundingBox" x="0%" y="0%" width="100%" height="100%">
  <feColorMatrix type="matrix" in="SourceGraphic" values="0 0 0 0 1 0 0 0 0 1 0 0 0 0 1 0 0 0 1 0"/>
</filter>
<mask id="mask0">
  <g filter="url(#alpha)">
<rect x="0" y="0" width="48" height="48" style="fill:rgb(0%,0%,0%);fill-opacity:0.968627;stroke:none;"/>
  </g>
</mask>
<clipPath id="clip1">
  <rect width="48" height="48"/>
</clipPath>
<g id="surface6" clip-path="url(#clip1)">
<path style=" stroke:none;fill-rule:evenodd;fill:rgb(89.019608%,92.54902%,94.509804%);fill-opacity:0.952941;" d="M 37.5625 4.886719 C 37.105469 4.898438 36.648438 5.0625 36.277344 5.386719 L 24.015625 15.988281 C 22.585938 14.671875 20.375 14.609375 18.867188 15.910156 L 16.488281 17.96875 C 14.980469 19.273438 14.722656 21.46875 15.820312 23.074219 L 3.785156 33.476562 C 2.929688 34.21875 2.839844 35.5 3.578125 36.355469 L 8.84375 42.449219 C 9.585938 43.304688 10.867188 43.398438 11.722656 42.65625 L 24.9375 31.234375 C 22.378906 35.375 22.335938 40.546875 24.820312 44.625 L 32.851562 37.683594 C 32.925781 37.992188 33.066406 38.277344 33.269531 38.511719 C 34.050781 39.414062 35.507812 39.429688 36.523438 38.550781 C 37.539062 37.671875 37.734375 36.226562 36.953125 35.328125 C 36.75 35.089844 36.492188 34.910156 36.191406 34.792969 L 44.199219 27.871094 C 40.527344 24.820312 35.410156 24.113281 30.941406 26.042969 L 44.214844 14.566406 C 45.070312 13.828125 45.160156 12.542969 44.421875 11.6875 L 39.15625 5.597656 C 38.738281 5.113281 38.148438 4.875 37.5625 4.886719 Z M 37.5625 4.886719 "/>
</g>
<mask id="mask1">
  <g filter="url(#alpha)">
<rect x="0" y="0" width="48" height="48" style="fill:rgb(0%,0%,0%);fill-opacity:0.968627;stroke:none;"/>
  </g>
</mask>
<clipPath id="clip2">
  <rect width="48" height="48"/>
</clipPath>
<g id="surface9" clip-path="url(#clip2)">
<path style=" stroke:none;fill-rule:evenodd;fill:rgb(21.568627%,44.313725%,78.431373%);fill-opacity:0.996078;" d="M 17.847656 19.285156 L 20.070312 17.359375 C 20.835938 16.695312 21.996094 16.78125 22.660156 17.546875 L 28.671875 24.488281 C 29.335938 25.257812 29.25 26.417969 28.484375 27.082031 L 26.261719 29.003906 C 25.496094 29.667969 24.335938 29.585938 23.671875 28.816406 L 17.660156 21.875 C 16.996094 21.105469 17.082031 19.945312 17.847656 19.285156 Z M 17.847656 19.285156 "/>
</g>
<clipPath id="clip3">
  <path d="M 8 17 L 38 17 L 38 48 L 8 48 Z M 8 17 "/>
</clipPath>
<clipPath id="clip4">
  <path d="M 8.667969 25.96875 L 18.417969 17.527344 L 37.90625 40.042969 L 28.160156 48.480469 Z M 8.667969 25.96875 "/>
</clipPath>
<mask id="mask2">
  <g filter="url(#alpha)">
<rect x="0" y="0" width="48" height="48" style="fill:rgb(0%,0%,0%);fill-opacity:0.968627;stroke:none;"/>
  </g>
</mask>
<clipPath id="clip5">
  <rect width="48" height="48"/>
</clipPath>
<g id="surface12" clip-path="url(#clip5)">
<path style=" stroke:none;fill-rule:evenodd;fill:rgb(100%,100%,100%);fill-opacity:0.278431;" d="M 17.847656 19.285156 L 20.070312 17.359375 C 20.835938 16.695312 21.996094 16.78125 22.660156 17.546875 L 28.671875 24.488281 C 29.335938 25.257812 29.25 26.417969 28.484375 27.082031 L 26.261719 29.003906 C 25.496094 29.667969 24.335938 29.585938 23.671875 28.816406 L 17.660156 21.875 C 16.996094 21.105469 17.082031 19.945312 17.847656 19.285156 Z M 17.847656 19.285156 "/>
</g>
<clipPath id="clip6">
  <path d="M 24 26 L 38 26 L 38 43 L 24 43 Z M 24 26 "/>
</clipPath>
<clipPath id="clip7">
  <path d="M 8.667969 25.96875 L 18.417969 17.527344 L 37.90625 40.042969 L 28.160156 48.480469 Z M 8.667969 25.96875 "/>
</clipPath>
<mask id="mask3">
  <g filter="url(#alpha)">
<rect x="0" y="0" width="48" height="48" style="fill:rgb(0%,0%,0%);fill-opacity:0.968627;stroke:none;"/>
  </g>
</mask>
<clipPath id="clip8">
  <rect width="48" height="48"/>
</clipPath>
<g id="surface15" clip-path="url(#clip8)">
<path style=" stroke:none;fill-rule:evenodd;fill:rgb(21.568627%,44.313725%,78.431373%);fill-opacity:0.996078;" d="M 4.027344 34.574219 L 7.460938 31.601562 L 10.4375 35.039062 L 7 38.011719 Z M 4.027344 34.574219 "/>
</g>
<mask id="mask4">
  <g filter="url(#alpha)">
<rect x="0" y="0" width="48" height="48" style="fill:rgb(0%,0%,0%);fill-opacity:0.968627;stroke:none;"/>
  </g>
</mask>
<clipPath id="clip9">
  <rect width="48" height="48"/>
</clipPath>
<g id="surface18" clip-path="url(#clip9)">
<path style=" stroke:none;fill-rule:evenodd;fill:rgb(21.568627%,44.313725%,78.431373%);fill-opacity:0.996078;" d="M 8.160156 30.996094 L 11.597656 28.019531 L 14.574219 31.457031 L 11.136719 34.433594 Z M 8.160156 30.996094 "/>
</g>
<mask id="mask5">
  <g filter="url(#alpha)">
<rect x="0" y="0" width="48" height="48" style="fill:rgb(0%,0%,0%);fill-opacity:0.968627;stroke:none;"/>
  </g>
</mask>
<clipPath id="clip10">
  <rect width="48" height="48"/>
</clipPath>
<g id="surface21" clip-path="url(#clip10)">
<path style=" stroke:none;fill-rule:evenodd;fill:rgb(21.568627%,44.313725%,78.431373%);fill-opacity:0.996078;" d="M 12.296875 27.414062 L 15.734375 24.441406 L 18.707031 27.878906 L 15.273438 30.851562 Z M 12.296875 27.414062 "/>
</g>
<mask id="mask6">
  <g filter="url(#alpha)">
<rect x="0" y="0" width="48" height="48" style="fill:rgb(0%,0%,0%);fill-opacity:0.968627;stroke:none;"/>
  </g>
</mask>
<clipPath id="clip11">
  <rect width="48" height="48"/>
</clipPath>
<g id="surface24" clip-path="url(#clip11)">
<path style=" stroke:none;fill-rule:evenodd;fill:rgb(21.568627%,44.313725%,78.431373%);fill-opacity:0.996078;" d="M 7.632812 38.742188 L 11.070312 35.765625 L 14.042969 39.203125 L 10.605469 42.179688 Z M 7.632812 38.742188 "/>
</g>
<mask id="mask7">
  <g filter="url(#alpha)">
<rect x="0" y="0" width="48" height="48" style="fill:rgb(0%,0%,0%);fill-opacity:0.968627;stroke:none;"/>
  </g>
</mask>
<clipPath id="clip12">
  <rect width="48" height="48"/>
</clipPath>
<g id="surface27" clip-path="url(#clip12)">
<path style=" stroke:none;fill-rule:evenodd;fill:rgb(21.568627%,44.313725%,78.431373%);fill-opacity:0.996078;" d="M 11.765625 35.160156 L 15.203125 32.1875 L 18.179688 35.625 L 14.742188 38.597656 Z M 11.765625 35.160156 "/>
</g>
<mask id="mask8">
  <g filter="url(#alpha)">
<rect x="0" y="0" width="48" height="48" style="fill:rgb(0%,0%,0%);fill-opacity:0.968627;stroke:none;"/>
  </g>
</mask>
<clipPath id="clip13">
  <rect width="48" height="48"/>
</clipPath>
<g id="surface30" clip-path="url(#clip13)">
<path style=" stroke:none;fill-rule:evenodd;fill:rgb(21.568627%,44.313725%,78.431373%);fill-opacity:0.996078;" d="M 15.902344 31.582031 L 19.339844 28.605469 L 22.316406 32.042969 L 18.878906 35.019531 Z M 15.902344 31.582031 "/>
</g>
<mask id="mask9">
  <g filter="url(#alpha)">
<rect x="0" y="0" width="48" height="48" style="fill:rgb(0%,0%,0%);fill-opacity:0.968627;stroke:none;"/>
  </g>
</mask>
<clipPath id="clip14">
  <rect width="48" height="48"/>
</clipPath>
<g id="surface33" clip-path="url(#clip14)">
<path style=" stroke:none;fill-rule:evenodd;fill:rgb(23.529412%,45.490196%,78.823529%);fill-opacity:0.968627;" d="M 25.476562 16.007812 L 28.914062 13.03125 L 31.886719 16.46875 L 28.453125 19.441406 Z M 25.476562 16.007812 "/>
</g>
<mask id="mask10">
  <g filter="url(#alpha)">
<rect x="0" y="0" width="48" height="48" style="fill:rgb(0%,0%,0%);fill-opacity:0.968627;stroke:none;"/>
  </g>
</mask>
<clipPath id="clip15">
  <rect width="48" height="48"/>
</clipPath>
<g id="surface36" clip-path="url(#clip15)">
<path style=" stroke:none;fill-rule:evenodd;fill:rgb(23.529412%,45.490196%,78.823529%);fill-opacity:0.968627;" d="M 29.613281 12.425781 L 33.046875 9.449219 L 36.023438 12.886719 L 32.585938 15.863281 Z M 29.613281 12.425781 "/>
</g>
<mask id="mask11">
  <g filter="url(#alpha)">
<rect x="0" y="0" width="48" height="48" style="fill:rgb(0%,0%,0%);fill-opacity:0.968627;stroke:none;"/>
  </g>
</mask>
<clipPath id="clip16">
  <rect width="48" height="48"/>
</clipPath>
<g id="surface39" clip-path="url(#clip16)">
<path style=" stroke:none;fill-rule:evenodd;fill:rgb(23.529412%,45.490196%,78.823529%);fill-opacity:0.968627;" d="M 33.746094 8.847656 L 37.183594 5.871094 L 40.160156 9.308594 L 36.722656 12.28125 Z M 33.746094 8.847656 "/>
</g>
<mask id="mask12">
  <g filter="url(#alpha)">
<rect x="0" y="0" width="48" height="48" style="fill:rgb(0%,0%,0%);fill-opacity:0.968627;stroke:none;"/>
  </g>
</mask>
<clipPath id="clip17">
  <rect width="48" height="48"/>
</clipPath>
<g id="surface42" clip-path="url(#clip17)">
<path style=" stroke:none;fill-rule:evenodd;fill:rgb(23.529412%,45.490196%,78.823529%);fill-opacity:0.968627;" d="M 29.082031 20.171875 L 32.519531 17.195312 L 35.496094 20.632812 L 32.058594 23.609375 Z M 29.082031 20.171875 "/>
</g>
<mask id="mask13">
  <g filter="url(#alpha)">
<rect x="0" y="0" width="48" height="48" style="fill:rgb(0%,0%,0%);fill-opacity:0.968627;stroke:none;"/>
  </g>
</mask>
<clipPath id="clip18">
  <rect width="48" height="48"/>
</clipPath>
<g id="surface45" clip-path="url(#clip18)">
<path style=" stroke:none;fill-rule:evenodd;fill:rgb(23.529412%,45.490196%,78.823529%);fill-opacity:0.968627;" d="M 33.21875 16.589844 L 36.65625 13.617188 L 39.628906 17.054688 L 36.195312 20.027344 Z M 33.21875 16.589844 "/>
</g>
<mask id="mask14">
  <g filter="url(#alpha)">
<rect x="0" y="0" width="48" height="48" style="fill:rgb(0%,0%,0%);fill-opacity:0.968627;stroke:none;"/>
  </g>
</mask>
<clipPath id="clip19">
  <rect width="48" height="48"/>
</clipPath>
<g id="surface48" clip-path="url(#clip19)">
<path style=" stroke:none;fill-rule:evenodd;fill:rgb(23.529412%,45.490196%,78.823529%);fill-opacity:0.968627;" d="M 37.355469 13.011719 L 40.789062 10.035156 L 43.765625 13.472656 L 40.328125 16.449219 Z M 37.355469 13.011719 "/>
</g>
</defs>
<g id="surface1">
<use xlink:href="#surface6" mask="url(#mask0)"/>
<use xlink:href="#surface9" mask="url(#mask1)"/>
<path style=" stroke:none;fill-rule:evenodd;fill:rgb(23.529412%,45.490196%,78.823529%);fill-opacity:0.968627;" d="M 25.386719 42.097656 C 23.898438 37.214844 25.101562 32.296875 28.507812 29.34375 C 31.914062 26.402344 36.949219 25.917969 41.570312 28.089844 Z M 25.386719 42.097656 "/>
<g clip-path="url(#clip3)" clip-rule="nonzero">
<g clip-path="url(#clip4)" clip-rule="nonzero">
<use xlink:href="#surface12" mask="url(#mask2)"/>
</g>
</g>
<path style=" stroke:none;fill-rule:evenodd;fill:rgb(25.490196%,46.666667%,79.607843%);fill-opacity:0.996078;" d="M 35.933594 36.089844 C 35.5 35.585938 34.738281 35.53125 34.234375 35.96875 C 33.734375 36.402344 33.679688 37.164062 34.113281 37.667969 C 34.546875 38.167969 35.308594 38.222656 35.8125 37.789062 C 36.3125 37.355469 36.367188 36.59375 35.933594 36.089844 Z M 35.933594 36.089844 "/>
<g clip-path="url(#clip6)" clip-rule="nonzero">
<g clip-path="url(#clip7)" clip-rule="nonzero">
<path style=" stroke:none;fill-rule:evenodd;fill:rgb(100%,100%,100%);fill-opacity:0.278431;" d="M 25.386719 42.097656 C 23.898438 37.214844 25.101562 32.296875 28.507812 29.34375 C 31.914062 26.402344 36.949219 25.917969 41.570312 28.089844 Z M 25.386719 42.097656 "/>
</g>
</g>
<use xlink:href="#surface15" mask="url(#mask3)"/>
<use xlink:href="#surface18" mask="url(#mask4)"/>
<use xlink:href="#surface21" mask="url(#mask5)"/>
<use xlink:href="#surface24" mask="url(#mask6)"/>
<use xlink:href="#surface27" mask="url(#mask7)"/>
<use xlink:href="#surface30" mask="url(#mask8)"/>
<use xlink:href="#surface33" mask="url(#mask9)"/>
<use xlink:href="#surface36" mask="url(#mask10)"/>
<use xlink:href="#surface39" mask="url(#mask11)"/>
<use xlink:href="#surface42" mask="url(#mask12)"/>
<use xlink:href="#surface45" mask="url(#mask13)"/>
<use xlink:href="#surface48" mask="url(#mask14)"/>
</g>
</svg>
